# xmcd
#
# Track frame offsets: 
#        150
#        9460
#        19187
#        29805
#        40480
#        50140
#        60662
#        69875
#        83020
#        95752
#        104387
#        115212
#        127325
#        139337
#        149055
#        159447
#        171022
#        181015
#        191435
#        201725
#        211670
#        221780
#        231597
#        240340
#        248575
#        258757
#        270080
#        280365
#        290385
#        302502
#        313292
#        324532
#        335530
#
# Disc length: 4589 seconds
#
# Revision: 2
# Processed by: cddbd v1.5.2PL0 Copyright (c) Steve Scherf et al.
# Submitted via: ExactAudioCopy v0.95b4
#
DISCID=f611eb21
DTITLE=Jimmy and Johnny - If You Don't, Somebody Else Will
DYEAR=1997
DGENRE=Hillbilly
TTITLE0=Don't Forget To Remember 1952
TTITLE1=Wait A Minute Baby 1997
TTITLE2=If You Don't, Somebody Else Will 1997
TTITLE3=I'm Beginning To Remember 1954
TTITLE4=Flying (To Your Heart) 1997
TTITLE5=All Day Long 1997
TTITLE6=Can't You, Won't You 1955
TTITLE7=The Fun Is Over 1955
TTITLE8=Dear Mr. Disk Jockey 1997
TTITLE9=Love Me (DJ version) 1955
TTITLE10=Lips That Kiss So Sweetly (DJ version) 1955
TTITLE11=Sweet Singing Daddy 1955
TTITLE12=Trust Me 1955
TTITLE13='Til The End Of The World (Rolls 'Round) 1956
TTITLE14=Imagination 1956
TTITLE15=Another Man's Name 1956
TTITLE16=Sweet Love On My Mind 1956
TTITLE17=Here Comes My Baby 1956
TTITLE18=Don't Give Me That Look 1956
TTITLE19=I'll Do It Everytime 1957
TTITLE20=What'cha Doin' To Me 1957
TTITLE21=I Can't Find The Door Knob 1958
TTITLE22=Keep Telling Me 1958
TTITLE23=Look What Love Will Do 1959
TTITLE24=I Ain't Worried About Tomorrow 1959
TTITLE25=My Little Baby 1959
TTITLE26=All I Need Is Time 1959
TTITLE27=Let Me Be The One 1960
TTITLE28=Knock On Wood 1960
TTITLE29=If You Don't, Somebody Else Will 1954
TTITLE30=I'm Beginning To Remember 1954
TTITLE31=Lips That Kiss So Sweetly 1955
TTITLE32=Love Me 1955
EXTD=
EXTT0=
EXTT1=
EXTT2=
EXTT3=
EXTT4=
EXTT5=
EXTT6=
EXTT7=
EXTT8=
EXTT9=
EXTT10=
EXTT11=
EXTT12=
EXTT13=
EXTT14=
EXTT15=
EXTT16=
EXTT17=
EXTT18=
EXTT19=
EXTT20=
EXTT21=
EXTT22=
EXTT23=
EXTT24=
EXTT25=
EXTT26=
EXTT27=
EXTT28=
EXTT29=
EXTT30=
EXTT31=
EXTT32=
PLAYORDER=
